<svg xmlns="http://www.w3.org/2000/svg" width="900" height="900" viewBox="0 0 900 900" version="1.1"><path d="M 178 79.933 C 178 158.389, 177.964 159.877, 176.044 160.486 C 172.924 161.476, 169 166.842, 169 170.119 C 169 171.749, 168.150 173.996, 167.111 175.111 C 164.920 177.463, 164 181.295, 164 188.073 C 164 192.418, 163.482 193.521, 158.774 199.198 C 155.900 202.664, 146.338 212.849, 137.524 221.832 C 105.897 254.067, 96.492 271.369, 96.665 297 C 96.743 308.544, 98.288 315.964, 103.188 328.333 C 110.669 347.214, 124.017 364.940, 156.749 399.459 C 162.985 406.036, 169.398 413.461, 170.999 415.959 C 176.270 424.180, 177.044 425, 179.547 425 C 182.036 425, 186 421.885, 186 419.930 C 186 417.434, 193.522 408.358, 209.975 391 C 230.399 369.453, 235.665 363.402, 243.480 352.500 C 267.190 319.423, 269.315 283.288, 249.239 254.607 C 239.555 240.774, 236.067 236.718, 219.049 219.500 C 213.069 213.450, 205.211 204.915, 201.588 200.534 L 195 192.568 195 185.419 C 195 179.611, 194.595 177.755, 192.844 175.529 C 191.658 174.021, 190.585 171.486, 190.460 169.896 C 190.143 165.860, 187.384 162.030, 183.926 160.824 L 181 159.804 181 79.902 C 181 9.545, 180.821 0, 179.500 0 C 178.179 0, 178 9.548, 178 79.933 M 278.661 30.163 C 278.298 46.752, 278 147.030, 278 253.002 L 278 445.679 275.553 446.794 C 271.659 448.568, 269.661 452.439, 270.276 457.021 C 270.679 460.025, 270.465 461, 269.405 461 C 268.319 461, 267.961 462.985, 267.826 469.750 C 267.730 474.563, 267.597 479.850, 267.531 481.500 C 267.323 486.673, 260.287 499.348, 242.826 526.008 C 222.868 556.480, 216.150 569.912, 210.819 590 C 208.810 597.573, 208.560 600.900, 208.536 620.500 C 208.512 640.125, 208.755 643.472, 210.781 651.500 C 217.503 678.132, 227.492 700.882, 244.806 729 C 267.570 765.967, 273.649 776.725, 275.265 782.907 C 275.985 785.658, 280.569 786.700, 282.853 784.633 C 283.828 783.751, 285.373 780.660, 286.287 777.764 C 288.215 771.653, 295.130 759.317, 305.441 743.591 C 342.589 686.936, 353.218 657.746, 351.717 616.500 C 350.695 588.439, 342.576 566.850, 319.771 531.557 C 304.775 508.349, 300.940 502.016, 296.252 492.722 L 291.777 483.847 291.935 472.410 C 292.056 463.650, 291.779 460.852, 290.751 460.458 C 289.904 460.133, 289.533 458.753, 289.746 456.721 C 290.163 452.758, 286.973 447.282, 283.781 446.481 L 281.500 445.909 281.754 222.954 C 281.967 36.886, 281.787 -0, 280.666 -0 C 279.586 -0, 279.193 5.912, 278.661 30.163 M 402 140.974 L 402 281.949 399.017 283.491 C 395.848 285.130, 393 289.586, 393 292.906 C 393 294.009, 391.875 296.569, 390.500 298.595 C 388.467 301.591, 388 303.494, 388 308.787 C 388 316.788, 387.732 317.150, 363.478 342 C 337.595 368.518, 331.616 376.648, 324.358 395.195 C 321.637 402.149, 321.500 403.269, 321.500 418.500 C 321.500 432.784, 321.758 435.251, 323.902 441.500 C 332.219 465.730, 345.422 484.773, 375.555 516 C 387.692 528.578, 395.329 537.764, 397.999 542.998 C 401.243 549.357, 406.316 549.235, 409.605 542.720 C 412.927 536.142, 422.171 525.031, 438.110 508.462 C 455.779 490.095, 463.982 480.395, 471.095 469.458 C 484.876 448.268, 490.018 423.903, 485.014 403.500 C 480.472 384.977, 469.533 369.229, 439.517 338 C 433.966 332.225, 427.079 324.664, 424.212 321.198 L 419 314.896 419 307.583 C 419 301.784, 418.586 299.743, 417 297.727 C 415.900 296.329, 414.998 294.131, 414.996 292.842 C 414.991 289.301, 411.618 284.499, 408.118 283.049 L 405 281.757 405 140.879 C 405 16.320, 404.826 0, 403.500 0 C 402.174 0, 402 16.330, 402 140.974 M 169.405 202.146 L 167.500 204.291 170 202.972 C 171.375 202.246, 173.850 201.327, 175.500 200.929 L 178.500 200.205 174.905 200.102 C 172.398 200.031, 170.734 200.649, 169.405 202.146 M 173.625 204.469 C 168.892 206.156, 164.546 210.240, 157.369 219.743 C 152.134 226.674, 144.007 234, 141.552 234 C 140.914 234, 138.874 235.567, 137.018 237.481 L 133.644 240.962 136.700 240.086 C 143.296 238.194, 147.260 235.500, 151.628 229.940 C 154.133 226.752, 156.254 223.795, 156.341 223.369 C 156.675 221.744, 166.668 212.785, 170.210 210.936 C 172.898 209.534, 175.945 209, 181.264 209 C 191.969 209, 196.500 212.190, 208.900 228.461 C 212.955 233.781, 221.676 240.658, 222.862 239.471 C 223.305 239.029, 214.386 229.590, 194.958 209.939 C 187.940 202.840, 182.272 201.387, 173.625 204.469 M 174.127 212.446 C 168.822 214.163, 165.915 216.820, 156.561 228.500 C 148.740 238.267, 143.095 242.202, 135.017 243.522 C 130.913 244.193, 128.112 246.144, 128.032 248.389 C 128.014 248.878, 130.770 249.027, 134.155 248.720 C 141.591 248.045, 146.370 245.032, 152.757 236.988 C 166.290 219.946, 170.422 217, 180.793 217 C 190.106 217, 195.660 220.374, 204.471 231.383 C 213.408 242.548, 216.430 245.447, 221.218 247.447 C 225.426 249.205, 231 249.512, 231 247.985 C 231 246.723, 225.355 243.174, 222 242.328 C 217.488 241.190, 211.301 236.165, 205.930 229.275 C 203.025 225.549, 199.265 220.998, 197.574 219.162 C 191.382 212.440, 182.237 209.820, 174.127 212.446 M 170.987 222.250 C 168.295 223.615, 164.470 227.057, 161.263 231 C 147.150 248.352, 143.176 251.119, 132.018 251.364 C 125.720 251.502, 123 252.266, 123 253.899 C 123 255.415, 128.156 257, 133.087 257 C 141.750 257, 145.936 253.885, 158.821 237.847 C 165.921 229.011, 172.480 225, 179.830 225 C 190.100 225, 196.582 229.314, 207.129 243.169 C 210.434 247.511, 214.898 252.228, 217.050 253.652 C 221.301 256.465, 227.821 257.631, 233.420 256.581 C 236.639 255.977, 236.852 255.736, 235.742 253.958 C 234.898 252.607, 233.410 252, 230.941 252 C 228.973 252, 224.992 251.296, 222.093 250.435 C 216.223 248.692, 210.710 243.756, 200.773 231.351 C 197.020 226.665, 193.552 223.477, 190.708 222.101 C 184.788 219.235, 176.813 219.295, 170.987 222.250 M 171.278 230.148 C 166.847 232.297, 163.544 235.621, 155.849 245.672 C 148.110 255.781, 141.204 259.869, 131.718 259.956 C 129.088 259.980, 125.412 259.363, 123.549 258.585 C 121.687 257.807, 119.901 257.432, 119.582 257.752 C 116.648 260.686, 124.423 265, 132.644 265 C 141.538 265, 145.735 262.409, 154.178 251.706 C 166.035 236.675, 170.621 233.574, 181 233.574 C 191.334 233.574, 195.755 236.654, 208.035 252.405 C 215.512 261.995, 220.507 265.002, 228.946 264.993 C 236.937 264.985, 241.845 262.538, 239.715 259.625 C 238.665 258.189, 237.949 258.069, 235.655 258.941 C 229.029 261.460, 219.775 259.315, 213.521 253.810 C 211.049 251.634, 206.230 246.399, 202.813 242.177 C 195.852 233.576, 193.036 231.035, 188.569 229.326 C 183.745 227.481, 176.019 227.848, 171.278 230.148 M 172.391 238.378 C 168.877 239.968, 163.563 245.006, 159.421 250.676 C 150.014 263.550, 141.713 268.974, 131.390 268.990 C 126.510 268.998, 124.537 268.496, 121.595 266.500 C 119.569 265.125, 117.462 264, 116.913 264 C 115.407 264, 110.221 275.619, 108.908 281.935 C 107.011 291.054, 108.239 309.056, 111.359 317.878 C 114.469 326.674, 115.599 328.277, 117.855 327.098 C 118.760 326.625, 122.650 325.685, 126.500 325.008 C 138.412 322.915, 144.042 325.619, 153.924 338.176 C 156.869 341.918, 160.867 346.616, 162.809 348.615 C 169.739 355.751, 178.850 357.787, 187.167 354.057 C 192.740 351.558, 194.913 349.633, 199.087 343.500 C 204.521 335.515, 214.088 326.590, 218.690 325.211 C 226.926 322.743, 234.679 323.806, 241.308 328.310 C 242.852 329.360, 244.332 330.002, 244.597 329.737 C 244.861 329.472, 246.478 325.260, 248.190 320.378 C 253.683 304.709, 253.083 286.255, 246.605 271.633 C 244.309 266.449, 243.744 265.841, 241.753 266.418 C 237.730 267.585, 225.348 268.288, 221.511 267.568 C 216.885 266.700, 209.805 260.301, 202.371 250.269 C 195.150 240.523, 190.650 237.634, 182.111 237.261 C 177.980 237.080, 174.333 237.500, 172.391 238.378 M 400.121 325.981 C 394.295 327.393, 392.276 329.028, 381.825 340.793 C 376.229 347.094, 369.346 353.722, 366.531 355.523 C 363.716 357.324, 360.815 359.518, 360.084 360.399 C 358.915 361.808, 359.121 362, 361.800 362 C 365.558 362, 372.163 357.144, 376.802 350.971 C 384.743 340.404, 389.458 335.695, 394.412 333.389 C 400.805 330.412, 408.764 330.256, 414.786 332.989 C 418.675 334.754, 431 346.360, 431 348.257 C 431 349.659, 439.143 357.925, 442.674 360.107 C 448.637 363.793, 447.350 361.490, 439.302 354.074 C 435.020 350.128, 431.042 346.012, 430.460 344.926 C 429.131 342.442, 416.364 329.269, 413.579 327.507 C 410.759 325.724, 404.234 324.984, 400.121 325.981 M 121.296 328.724 C 117.658 330.536, 116.379 332.824, 118.114 334.417 C 118.993 335.224, 119.091 335.117, 118.500 334 C 117.888 332.843, 117.990 332.761, 118.947 333.644 C 119.835 334.463, 121.225 334.500, 123.844 333.777 C 125.855 333.222, 130.263 332.989, 133.640 333.260 C 141.383 333.881, 146.608 337.281, 153.423 346.134 C 164.573 360.616, 169.321 364, 178.492 364 C 187.805 364, 192.392 361.008, 202.249 348.500 C 209.370 339.465, 212.586 336.494, 217.500 334.409 C 222.966 332.089, 231.494 332.273, 236.500 334.818 C 239.049 336.114, 240.855 336.506, 241.478 335.898 C 242.995 334.418, 240.868 331.859, 235.913 329.207 C 232.333 327.290, 230.367 326.915, 225.500 327.220 C 217.573 327.716, 212.878 330.896, 204.957 341.135 C 194.129 355.131, 188.480 359.007, 178.934 358.990 C 168.761 358.972, 163.449 355.320, 151.531 340.151 C 143.747 330.243, 138.516 326.980, 130.554 327.064 C 127.142 327.100, 123.102 327.824, 121.296 328.724 M 395 336.237 C 392.024 337.818, 388.221 341.485, 383.772 347.064 C 373.503 359.940, 370.338 362.541, 361.853 365.079 C 350.917 368.349, 348.534 371, 356.532 371 C 365.459 371, 370.580 367.433, 381.140 353.857 C 391.711 340.266, 401.127 336.311, 412.965 340.488 C 418.593 342.473, 421.933 345.434, 430.042 355.624 C 438.227 365.909, 443.202 369.792, 449.256 370.622 C 455.191 371.435, 456.387 369.560, 451.303 367.410 C 438.652 362.061, 436.466 360.315, 426.843 347.875 C 418.738 337.398, 414.571 334.648, 406.122 334.199 C 400.628 333.906, 398.733 334.254, 395 336.237 M 122.750 336.162 C 119.897 337.204, 119.597 337.787, 120.589 340.372 C 121.066 341.613, 122.361 341.799, 127.339 341.340 C 139.161 340.251, 144.556 343.236, 155.324 356.825 C 165.761 369.996, 172.363 373.997, 181.300 372.568 C 188.478 371.420, 192.629 368.382, 200.661 358.396 C 213.189 342.820, 219.375 339.465, 231.507 341.664 C 234.358 342.180, 237.210 342.430, 237.845 342.218 C 242.212 340.763, 233.276 335, 226.652 335 C 218.732 335, 213.919 338.362, 203.752 351 C 193.373 363.900, 188.579 367, 179.008 367 C 168.503 367, 164.169 364.125, 152.411 349.356 C 146.854 342.376, 143.733 339.392, 140.024 337.512 C 134.739 334.834, 127.859 334.296, 122.750 336.162 M 398.563 342.725 C 394.414 343.782, 388.963 348.453, 382.716 356.305 C 379.130 360.812, 374.915 365.713, 373.348 367.196 C 368.821 371.482, 361.675 374.165, 354.873 374.132 C 350.381 374.111, 348.750 374.488, 348.303 375.653 C 347.412 377.974, 349.836 378.968, 356.434 378.985 C 365.824 379.009, 369.748 376.519, 379.329 364.459 C 390.625 350.238, 397.785 345.991, 407.905 347.509 C 416.746 348.834, 421.095 352.375, 434.205 368.922 C 440.053 376.304, 445.655 379.171, 453.486 378.792 C 458.028 378.571, 459.500 378.134, 459.500 377.004 C 459.500 375.941, 457.908 375.309, 454 374.819 C 443.525 373.507, 438.466 370.268, 429.297 359 C 421.298 349.170, 417.309 345.439, 412.782 343.551 C 409.218 342.064, 402.655 341.683, 398.563 342.725 M 125.750 343.689 C 123.773 344.206, 123.621 344.851, 124.972 346.990 C 125.540 347.888, 128.956 348.949, 133.580 349.664 C 142.979 351.117, 145.385 352.884, 156.601 366.562 C 167.546 379.910, 174.219 383.011, 185.348 379.920 C 189.666 378.721, 196.608 372.240, 204.501 362.039 C 211.544 352.936, 217.160 349.678, 226.201 349.451 C 231.620 349.315, 233.484 348.887, 234.197 347.613 C 235.537 345.218, 229.230 342.687, 224.197 343.600 C 216.172 345.055, 211.152 349.086, 201.610 361.735 C 193.740 372.167, 188.500 375.195, 178.358 375.167 C 168.578 375.141, 163.761 372.013, 153.459 359 C 150.194 354.875, 146.392 350.495, 145.011 349.267 C 139.330 344.216, 131.933 342.074, 125.750 343.689 M 401.500 350.442 C 400.950 350.653, 399.251 351.101, 397.725 351.438 C 394.088 352.241, 388.045 357.761, 380.892 366.815 C 369.355 381.415, 364.541 383.354, 346.101 380.829 C 339.280 379.894, 345.962 386.128, 353.150 387.405 C 357.769 388.225, 365.437 386.537, 369.171 383.878 C 370.752 382.752, 375.349 377.707, 379.386 372.666 C 383.423 367.625, 387.806 362.509, 389.127 361.298 C 392.844 357.887, 398.871 355.800, 405 355.800 C 414.926 355.800, 420.345 359.316, 430.035 372.046 C 440.323 385.561, 447.205 389.307, 457.503 386.999 C 463.486 385.659, 465.464 384.264, 463.957 382.449 C 463.181 381.513, 460.873 381.315, 455.493 381.722 C 448.854 382.224, 447.531 382.005, 442.593 379.589 C 437.252 376.976, 435.095 374.845, 424.801 362.012 C 418.860 354.605, 413.699 351.190, 407.500 350.564 C 404.750 350.287, 402.050 350.232, 401.500 350.442 M 222.500 352.030 C 215.519 353.509, 212.034 356.545, 200.725 371 C 192.715 381.239, 183.252 385.415, 173.184 383.153 C 166.542 381.660, 161.768 377.870, 154.415 368.250 C 145.637 356.765, 140.576 352.849, 133.705 352.226 L 128.500 351.753 131.333 354.768 C 132.892 356.427, 135.500 358.050, 137.131 358.376 C 142.080 359.366, 148.306 364.428, 154.710 372.669 C 165.095 386.032, 169.511 389, 179.008 389 C 185.902 389, 190.708 386.325, 197.154 378.898 C 212.566 361.144, 215.306 358.938, 223.685 357.543 C 226.520 357.071, 228.383 356.064, 229.458 354.423 C 230.332 353.090, 230.698 351.962, 230.273 351.917 C 229.848 351.871, 228.600 351.735, 227.500 351.614 C 226.400 351.493, 224.150 351.680, 222.500 352.030 M 395.919 361.263 C 390.654 363.834, 384.246 370.550, 381.072 376.824 C 378.260 382.382, 373.250 387.217, 367.338 390.079 C 362.977 392.189, 362.180 392.267, 355.889 391.188 C 352.170 390.550, 347.564 389.283, 345.654 388.372 C 343.744 387.461, 341.547 386.960, 340.772 387.257 C 339.996 387.555, 337.931 391.208, 336.181 395.376 C 333.125 402.657, 333 403.494, 333.009 416.727 C 333.017 427.922, 333.464 432.247, 335.396 439.837 C 338.234 450.982, 338.994 452.013, 342.760 449.835 C 344.267 448.964, 349.163 447.943, 353.641 447.566 C 366.383 446.495, 370.292 448.755, 381.190 463.497 C 384.442 467.895, 388.947 472.733, 391.202 474.247 C 394.755 476.634, 396.286 477, 402.700 477 C 407.247 477, 411.193 476.435, 412.936 475.533 C 415.617 474.147, 421.878 467.395, 430.340 456.765 C 435.493 450.292, 444.446 445.868, 450.903 446.605 C 458.602 447.483, 459.838 447.919, 463.333 450.987 L 466.702 453.946 468.716 451.723 C 471.908 448.200, 473.967 440.458, 475.210 427.303 C 476.228 416.535, 476.155 414.133, 474.585 406.803 C 471.513 392.456, 467.039 385.361, 463.373 389.027 C 461.126 391.274, 452.466 391.318, 445.847 389.115 C 438.552 386.688, 433.913 382.757, 424.340 370.888 C 414.905 359.190, 406.200 356.242, 395.919 361.263 M 216.446 362.918 C 213.024 364.881, 209.393 368.400, 205.202 373.818 C 193.782 388.580, 187.210 392.680, 176.402 391.783 C 169.427 391.205, 163.090 387.263, 156.994 379.709 C 154.238 376.294, 150.138 371.349, 147.882 368.719 C 143.818 363.981, 138.800 360.567, 136.855 361.215 C 135.714 361.595, 144.500 371, 145.996 371 C 146.528 371, 150.291 375.163, 154.359 380.250 C 162.643 390.611, 165.159 393.103, 169.500 395.249 C 174.499 397.721, 179.227 398.123, 184.545 396.527 C 190.645 394.698, 193.686 392.116, 202 381.711 C 205.575 377.236, 210.445 372.209, 212.822 370.538 C 215.198 368.867, 219.023 365.824, 221.322 363.775 C 224.699 360.764, 225.117 360.047, 223.500 360.034 C 222.400 360.026, 219.226 361.323, 216.446 362.918 M 186 399.131 C 184.625 399.683, 180.715 399.992, 177.311 399.818 L 171.122 399.500 173.430 402.500 C 175.063 404.622, 176.728 405.577, 179.119 405.764 C 181.998 405.989, 182.991 405.432, 185.806 402.014 C 187.625 399.806, 188.975 398.029, 188.806 398.063 C 188.638 398.098, 187.375 398.579, 186 399.131 M 347.741 450.372 C 341.385 452.737, 339.566 455.166, 342.186 457.786 C 343.101 458.701, 343.800 458.586, 345.243 457.280 C 348.316 454.499, 358.914 454.296, 364.321 456.913 C 368.815 459.089, 376.570 466.272, 379.891 471.335 C 382.801 475.770, 389.993 482.945, 393.183 484.595 C 398.422 487.304, 405.102 487.491, 410.549 485.082 C 416.730 482.347, 417.614 481.533, 427.094 469.859 C 433.135 462.418, 436.117 459.622, 440.157 457.609 C 446.337 454.530, 453.262 454.188, 460.376 456.612 C 466.426 458.674, 467.436 457.638, 462.994 453.930 C 452.545 445.210, 439.811 448.507, 429.455 462.612 C 422.470 472.127, 415.463 478.777, 411.165 479.971 C 409.149 480.531, 405.055 480.991, 402.066 480.994 C 392.468 481.004, 386.620 476.779, 374.812 461.302 C 367.099 451.192, 356.758 447.017, 347.741 450.372 M 351.500 457.987 C 343.891 459.762, 342.290 461.336, 345.436 463.947 C 346.482 464.815, 347.416 464.848, 348.870 464.069 C 352.193 462.291, 359.179 462.869, 364.500 465.363 C 369.598 467.752, 374.646 472.726, 383.364 483.952 C 389.593 491.973, 396.409 495.463, 404.533 494.789 C 411.634 494.200, 416.418 490.919, 424.248 481.268 C 432.752 470.785, 435.602 468.196, 441.870 465.260 C 446.351 463.160, 448.171 462.840, 452.870 463.325 C 455.966 463.645, 459.512 464.205, 460.750 464.570 C 464.423 465.653, 463.712 461.502, 459.899 459.600 C 454.630 456.971, 450.458 456.670, 444.643 458.499 C 438.608 460.397, 434.220 464.336, 426.309 474.956 C 420.070 483.333, 414.450 487.557, 407.675 488.964 C 396.258 491.334, 388.826 487.354, 377.378 472.742 C 370.142 463.505, 365.474 459.558, 360.500 458.470 C 355.197 457.310, 354.551 457.276, 351.500 457.987 M 447 466.028 C 439.853 467.283, 434.418 471.719, 427.234 482.159 C 418.128 495.394, 406.552 500.576, 395.110 496.539 C 389.111 494.422, 384.940 490.887, 378.183 482.193 C 368.137 469.267, 363.389 465.985, 354.782 466.015 C 349.041 466.036, 347.559 467.015, 349.419 469.559 C 350.487 471.019, 352.042 471.500, 355.696 471.500 C 363.856 471.500, 369.235 475.069, 378.880 486.881 C 389.261 499.594, 393.067 502.282, 401.449 502.816 C 411.016 503.425, 415.265 500.828, 425.321 488.224 C 435.597 475.345, 441.438 471.675, 451.589 471.719 C 456.421 471.741, 457.913 471.369, 458.818 469.919 C 459.674 468.548, 459.672 467.915, 458.807 467.380 C 456.743 466.105, 450.581 465.399, 447 466.028 M 353.593 475.250 C 355.256 478.172, 357.440 480, 359.270 480 C 362.590 480, 370.454 484.904, 374.197 489.310 C 376.155 491.615, 380.203 496.425, 383.193 500 C 390.377 508.590, 394.636 510.962, 402.912 510.984 C 411.937 511.007, 416.186 508.273, 425.099 496.707 C 433.037 486.406, 437.788 482.681, 445.942 480.366 C 452.407 478.531, 454.998 476.598, 453.286 474.886 C 452.448 474.048, 450.306 474.320, 444.964 475.942 C 437.303 478.269, 435.225 479.948, 427.879 489.743 C 419.056 501.508, 412.435 505.938, 403.616 505.978 C 393.057 506.026, 387.631 502.651, 378.074 490.097 C 370.832 480.583, 366.184 476.423, 361.277 475.060 C 356.025 473.601, 352.702 473.684, 353.593 475.250 M 277.144 487.828 C 274.753 493.724, 266.155 509.146, 259.504 519.470 L 255.658 525.439 259.775 522.178 C 268.561 515.219, 279.289 497.469, 280.632 487.666 C 281.514 481.231, 279.788 481.312, 277.144 487.828 M 362.106 485.930 C 363.379 487.651, 366.315 490.536, 368.631 492.340 C 372.576 495.414, 374.295 497.321, 383.774 509.148 C 391.310 518.550, 399.317 521.503, 409.357 518.585 C 415.161 516.897, 417.403 514.799, 429.212 500 C 431.626 496.975, 435.089 493.600, 436.908 492.500 C 442.301 489.238, 447.757 484.058, 445.833 484.027 C 442.701 483.976, 435.220 487.832, 433.359 490.456 C 419.815 509.552, 414.052 514, 402.853 514 C 392.436 514, 387.648 510.843, 377.002 496.951 C 371.034 489.164, 366.241 484.838, 362.146 483.543 L 359.792 482.799 362.106 485.930 M 280.081 496.750 C 275.320 509.216, 268.820 517.621, 255.692 528.287 C 253.128 530.370, 250.549 532.973, 249.961 534.073 C 248.922 536.015, 248.993 536.030, 252.455 534.583 C 263.820 529.835, 275.279 518.621, 281.976 505.694 C 285.729 498.450, 285.985 497.483, 284.963 494.387 C 284.348 492.524, 283.492 491, 283.061 491 C 282.630 491, 281.289 493.587, 280.081 496.750 M 282.998 508.217 C 276.568 520.025, 266.293 530.093, 254.351 536.285 C 245.302 540.978, 241.121 544.717, 246.815 543.025 C 265.625 537.435, 279.260 526.837, 287.362 511.508 C 290.317 505.917, 290.565 504.155, 288.748 501.669 C 287.646 500.164, 286.951 500.955, 282.998 508.217 M 287.144 515.967 C 277.644 530.552, 268.018 537.985, 250.847 543.995 C 243.868 546.438, 239.112 549.445, 240.320 550.653 C 241.065 551.398, 263.219 543.436, 269.500 540.166 C 282.472 533.411, 296.351 516.683, 294.036 510.594 C 293.493 509.167, 292.888 508, 292.691 508 C 292.494 508, 289.998 511.585, 287.144 515.967 M 292.544 521.663 C 283.105 535.955, 271.910 543.474, 249.797 550.376 C 241.576 552.942, 237.633 554.686, 236.547 556.237 C 234.202 559.584, 234.672 560.221, 238.157 558.419 C 239.893 557.521, 248.405 554.438, 257.071 551.567 C 265.738 548.697, 275.418 544.807, 278.584 542.924 C 285.455 538.835, 294.402 530.093, 297.074 524.854 C 299.355 520.383, 299.395 519.922, 297.700 517.604 C 296.519 515.989, 296.045 516.362, 292.544 521.663 M 407.500 522.107 C 405.850 522.621, 402.250 522.759, 399.500 522.413 L 394.500 521.785 397.482 524.939 C 401.501 529.191, 406.163 528.929, 409.759 524.250 C 412.409 520.802, 412.231 520.633, 407.500 522.107 M 296.705 528.733 C 286.416 542.105, 276.899 548.070, 255.399 554.623 C 237.434 560.099, 232.028 563.164, 229.493 569.312 L 227.921 573.124 233.211 569.172 C 240.805 563.498, 246.729 560.787, 262 555.999 C 283.603 549.225, 294.388 542.745, 300.750 532.716 C 304.473 526.847, 304.441 526.985, 302.664 524.555 C 301.430 522.867, 300.972 523.189, 296.705 528.733 M 301.473 534.598 C 291.810 546.390, 280.699 553.128, 262 558.535 C 248.518 562.433, 237.313 567.980, 231.057 573.855 C 227.641 577.061, 226.042 579.259, 226.539 580.064 C 227.015 580.833, 226.900 581.056, 226.237 580.647 C 225.210 580.012, 222.997 585.603, 221.547 592.500 L 220.916 595.500 222.980 592.190 C 224.115 590.369, 224.775 588.446, 224.448 587.915 C 224.120 587.385, 224.316 587.074, 224.885 587.225 C 225.453 587.376, 227.889 585.116, 230.298 582.203 C 234.906 576.631, 243.053 570.016, 248.979 567.037 C 250.915 566.063, 257 563.800, 262.500 562.008 C 288.710 553.468, 294.517 550.559, 303.457 541.491 C 308.127 536.754, 309.201 533.242, 306.631 531.109 C 305.549 530.210, 304.472 530.939, 301.473 534.598 M 305.384 542.058 C 296.556 551.231, 287.931 556.159, 271.406 561.470 C 253.162 567.333, 246.016 570.627, 239.432 576.205 C 231.932 582.561, 227.574 588.605, 223.003 598.993 C 219.252 607.516, 218.863 609.218, 218.337 619.396 C 217.920 627.471, 218.215 633.082, 219.419 639.967 C 221.591 652.385, 224.081 663.252, 224.630 662.703 C 224.871 662.462, 224.631 660.293, 224.096 657.883 C 221.851 647.761, 220.134 627.438, 220.962 620.787 C 222.077 611.822, 226.207 601.345, 232.058 592.641 C 242.161 577.610, 251.841 571.220, 276 563.633 C 291.537 558.754, 299.826 554.467, 306.827 547.689 C 312.391 542.303, 313.130 540.898, 311.543 538.728 C 310.381 537.139, 309.834 537.434, 305.384 542.058 M 309.366 550.250 C 304.475 556.501, 293.705 562.644, 281.906 565.913 C 271.119 568.901, 256.278 575.023, 250.979 578.670 C 241.927 584.899, 234.262 593.570, 230.110 602.277 C 223.929 615.237, 222.710 625.456, 225.549 640.500 C 226.379 644.900, 227.444 654.350, 227.916 661.500 C 228.762 674.334, 228.837 674.634, 233.822 685 C 239.755 697.339, 245.203 707.374, 254.179 722.500 C 257.770 728.550, 262.685 737.206, 265.104 741.736 C 267.522 746.266, 269.778 749.978, 270.118 749.986 C 272.398 750.038, 271.422 729.860, 268.450 715.500 C 266.575 706.436, 266.599 692.013, 268.502 684.460 C 271.344 673.182, 277.662 662.286, 286.474 653.467 C 293.246 646.689, 295.859 644.833, 303.203 641.580 C 307.990 639.460, 318.330 635.875, 326.181 633.613 C 343.008 628.764, 343.250 628.499, 341.138 617.231 C 340.444 613.529, 339.245 606.587, 338.475 601.805 C 336.947 592.321, 331.879 577.769, 326.006 566 C 323.948 561.875, 321.927 557.420, 321.517 556.101 C 320.393 552.488, 315.656 545, 314.494 545 C 313.933 545, 311.625 547.362, 309.366 550.250 M 336 633.935 C 335.175 634.416, 330 636.234, 324.500 637.975 C 308.889 642.917, 304.012 644.986, 296.714 649.761 C 288.730 654.985, 281.333 663.643, 276.429 673.500 C 269.524 687.383, 268.542 697.406, 272.020 718.500 C 274.197 731.694, 274.553 743.468, 272.951 749.235 C 272.223 751.859, 272.235 753.571, 272.992 754.985 C 274.614 758.017, 275.463 757.459, 276.793 752.486 C 278.441 746.321, 278.302 734.406, 276.447 723 C 272.302 697.503, 275.126 682.789, 287.491 665.460 C 295.816 653.794, 307.308 646.641, 327.619 640.485 C 339.102 637.004, 342 635.673, 342 633.878 C 342 632.754, 337.960 632.793, 336 633.935 M 328.500 642.565 C 303.572 650.411, 291.267 660.006, 282.072 678.765 C 276.337 690.466, 275.345 702.609, 278.459 723 C 280.188 734.327, 280.167 746.667, 278.392 760.880 C 277.494 768.073, 279.775 767.525, 282.326 759.934 C 284.613 753.130, 284.634 742.162, 282.396 724.519 C 279.524 701.881, 281.468 689.616, 290.264 674.886 C 295.201 666.619, 305.259 656.740, 312.969 652.585 C 315.944 650.981, 322.768 648.245, 328.132 646.504 C 337.610 643.429, 341 641.683, 341 639.878 C 341 638.651, 340.795 638.695, 328.500 642.565 M 326.937 650.359 C 315.223 654.318, 309.843 657.399, 302.053 664.612 C 295.345 670.822, 289.617 680.363, 285.911 691.500 C 283.104 699.934, 282.859 708.802, 285 724.500 C 285.825 730.550, 286.500 739.661, 286.500 744.747 C 286.500 753.708, 286.553 753.924, 288.228 751.747 C 290.422 748.894, 290.477 742.738, 288.395 733 C 285.972 721.662, 286.148 705.183, 288.790 696.127 C 295.104 674.484, 306.468 661.687, 326.690 653.445 C 332.627 651.026, 337.638 648.586, 337.826 648.023 C 338.303 646.592, 337.699 646.722, 326.937 650.359 M 334.500 653.473 C 319.791 658.397, 313.737 662.131, 305.046 671.640 C 299.694 677.496, 293.004 690.204, 291.169 698 C 288.521 709.250, 288.791 718.502, 292.277 735.871 C 293.273 740.837, 293.803 741.939, 294.679 740.871 C 295.514 739.852, 295.458 737.575, 294.459 732 C 292.544 721.305, 293.248 704.769, 295.968 696.597 C 299.164 686.994, 306.419 676.344, 316 667.192 C 319.217 664.119, 334.238 656, 336.706 656 C 337.290 656, 338.002 655.100, 338.290 654 C 338.577 652.900, 338.742 652.030, 338.656 652.067 C 338.570 652.104, 336.700 652.736, 334.500 653.473 M 328 662.743 C 314.660 669.368, 302.335 684.408, 298.287 699 C 296.842 704.209, 296.515 734.582, 297.895 735.435 C 299.599 736.488, 300.123 732.468, 299.514 723.005 C 298.498 707.236, 302.872 694.380, 314.184 679.877 C 319.679 672.833, 324.098 668.995, 331 665.271 C 334.025 663.639, 336.645 661.560, 336.823 660.652 C 337.276 658.341, 336.487 658.528, 328 662.743 M 326.983 671.332 C 311.147 683.764, 303 699.527, 303 717.734 C 303 728.191, 304.360 729.376, 305.437 719.858 C 305.822 716.455, 307.249 710.151, 308.608 705.848 C 309.967 701.545, 310.949 697.896, 310.790 697.738 C 310.630 697.580, 311.074 696.787, 311.776 695.975 C 312.478 695.164, 314.429 692.368, 316.112 689.763 C 320.165 683.488, 327.146 675.795, 330.338 674.087 C 333.149 672.582, 335.796 667, 333.698 667.001 C 333.039 667.001, 330.017 668.950, 326.983 671.332 M 326.927 680.701 C 318.073 690.456, 313.154 699.573, 310.089 711.907 C 307.994 720.335, 308.455 720.092, 313.941 709.878 C 316.657 704.823, 317.807 701.624, 317.358 700.378 C 316.986 699.345, 317.063 698.847, 317.528 699.271 C 317.994 699.695, 319.715 697.895, 321.352 695.271 C 329.607 682.040, 332.446 674.622, 326.927 680.701" stroke="none" fill="#040404" fill-rule="evenodd"/></svg>